<mxfile host="Electron" agent="Mozilla/5.0 (X11; Linux x86_64) AppleWebKit/537.36 (KHTML, like Gecko) draw.io/24.7.8 Chrome/128.0.6613.36 Electron/32.0.1 Safari/537.36" version="24.7.8">
  <diagram id="C5RBs43oDa-KdzZeNtuy" name="Page-1">
    <mxGraphModel dx="1687" dy="1034" grid="1" gridSize="10" guides="1" tooltips="1" connect="1" arrows="1" fold="1" page="1" pageScale="1" pageWidth="1169" pageHeight="827" background="none" math="0" shadow="0">
      <root>
        <mxCell id="WIyWlLk6GJQsqaUBKTNV-0" />
        <mxCell id="WIyWlLk6GJQsqaUBKTNV-1" parent="WIyWlLk6GJQsqaUBKTNV-0" />
        <mxCell id="oEOvBtnqVhMtwNFOPzGN-0" value="&lt;h2&gt;&lt;span style=&quot;background-color: initial; font-size: 17px;&quot;&gt;Бизнес-процесс&lt;/span&gt;&lt;span style=&quot;font-size: 17px;&quot;&gt;&amp;nbsp;«Оформление договора» (с арендатором) в нотации BPMN&lt;/span&gt;&lt;br&gt;&lt;/h2&gt;" style="text;whiteSpace=wrap;html=1;" parent="WIyWlLk6GJQsqaUBKTNV-1" vertex="1">
          <mxGeometry x="40" y="10" width="640" height="60" as="geometry" />
        </mxCell>
        <mxCell id="AHyAFD0pu5LO6jVeFDUx-0" value="&lt;h2 style=&quot;text-align: left;&quot;&gt;&lt;span style=&quot;font-size: 17px;&quot;&gt;Оформление договора&lt;/span&gt;&lt;/h2&gt;" style="swimlane;html=1;childLayout=stackLayout;resizeParent=1;resizeParentMax=0;horizontal=1;startSize=20;horizontalStack=0;whiteSpace=wrap;" parent="WIyWlLk6GJQsqaUBKTNV-1" vertex="1">
          <mxGeometry x="20" y="140" width="1800" height="610" as="geometry" />
        </mxCell>
        <mxCell id="AHyAFD0pu5LO6jVeFDUx-1" value="Менеджер по аренде" style="swimlane;html=1;startSize=20;horizontal=0;" parent="AHyAFD0pu5LO6jVeFDUx-0" vertex="1">
          <mxGeometry y="20" width="1800" height="350" as="geometry" />
        </mxCell>
        <mxCell id="UreStvk_w5NdoWGTIFE5-6" value="" style="edgeStyle=orthogonalEdgeStyle;rounded=0;orthogonalLoop=1;jettySize=auto;html=1;" parent="AHyAFD0pu5LO6jVeFDUx-1" source="AHyAFD0pu5LO6jVeFDUx-5" target="UreStvk_w5NdoWGTIFE5-0" edge="1">
          <mxGeometry relative="1" as="geometry" />
        </mxCell>
        <mxCell id="AHyAFD0pu5LO6jVeFDUx-5" value="&lt;font style=&quot;font-size: 10px;&quot;&gt;Заявка на заключение договора аренды&lt;/font&gt;" style="ellipse;whiteSpace=wrap;html=1;aspect=fixed;strokeColor=#0000FF;strokeWidth=3;" parent="AHyAFD0pu5LO6jVeFDUx-1" vertex="1">
          <mxGeometry x="30" y="120" width="80" height="80" as="geometry" />
        </mxCell>
        <mxCell id="UreStvk_w5NdoWGTIFE5-9" value="" style="edgeStyle=orthogonalEdgeStyle;rounded=0;orthogonalLoop=1;jettySize=auto;html=1;" parent="AHyAFD0pu5LO6jVeFDUx-1" source="AHyAFD0pu5LO6jVeFDUx-6" target="UreStvk_w5NdoWGTIFE5-8" edge="1">
          <mxGeometry relative="1" as="geometry" />
        </mxCell>
        <mxCell id="AHyAFD0pu5LO6jVeFDUx-6" value="&lt;font style=&quot;font-size: 10px;&quot;&gt;Определение ключевых условий аренды&lt;/font&gt;" style="rounded=1;whiteSpace=wrap;html=1;" parent="AHyAFD0pu5LO6jVeFDUx-1" vertex="1">
          <mxGeometry x="270" y="130" width="100" height="60" as="geometry" />
        </mxCell>
        <mxCell id="UreStvk_w5NdoWGTIFE5-7" value="" style="edgeStyle=orthogonalEdgeStyle;rounded=0;orthogonalLoop=1;jettySize=auto;html=1;" parent="AHyAFD0pu5LO6jVeFDUx-1" source="UreStvk_w5NdoWGTIFE5-0" target="AHyAFD0pu5LO6jVeFDUx-6" edge="1">
          <mxGeometry relative="1" as="geometry" />
        </mxCell>
        <mxCell id="UreStvk_w5NdoWGTIFE5-0" value="&lt;font style=&quot;font-size: 10px;&quot;&gt;Регистрация заявки&lt;/font&gt;" style="rounded=1;whiteSpace=wrap;html=1;" parent="AHyAFD0pu5LO6jVeFDUx-1" vertex="1">
          <mxGeometry x="150" y="130" width="80" height="60" as="geometry" />
        </mxCell>
        <mxCell id="UreStvk_w5NdoWGTIFE5-4" style="edgeStyle=orthogonalEdgeStyle;rounded=0;orthogonalLoop=1;jettySize=auto;html=1;entryX=0.5;entryY=0;entryDx=0;entryDy=0;exitX=1;exitY=0.5;exitDx=0;exitDy=0;dashed=1;" parent="AHyAFD0pu5LO6jVeFDUx-1" source="UreStvk_w5NdoWGTIFE5-1" target="UreStvk_w5NdoWGTIFE5-0" edge="1">
          <mxGeometry relative="1" as="geometry" />
        </mxCell>
        <mxCell id="UreStvk_w5NdoWGTIFE5-11" style="edgeStyle=orthogonalEdgeStyle;rounded=0;orthogonalLoop=1;jettySize=auto;html=1;entryX=0.5;entryY=0;entryDx=0;entryDy=0;dashed=1;exitX=1;exitY=0.5;exitDx=0;exitDy=0;" parent="AHyAFD0pu5LO6jVeFDUx-1" source="UreStvk_w5NdoWGTIFE5-1" target="AHyAFD0pu5LO6jVeFDUx-6" edge="1">
          <mxGeometry relative="1" as="geometry" />
        </mxCell>
        <mxCell id="UreStvk_w5NdoWGTIFE5-12" style="edgeStyle=orthogonalEdgeStyle;rounded=0;orthogonalLoop=1;jettySize=auto;html=1;entryX=0.5;entryY=0;entryDx=0;entryDy=0;dashed=1;exitX=1;exitY=0.5;exitDx=0;exitDy=0;" parent="AHyAFD0pu5LO6jVeFDUx-1" source="UreStvk_w5NdoWGTIFE5-1" target="UreStvk_w5NdoWGTIFE5-8" edge="1">
          <mxGeometry relative="1" as="geometry" />
        </mxCell>
        <mxCell id="UreStvk_w5NdoWGTIFE5-1" value="CRM" style="shape=datastore;html=1;labelPosition=center;verticalLabelPosition=bottom;align=center;verticalAlign=top;" parent="AHyAFD0pu5LO6jVeFDUx-1" vertex="1">
          <mxGeometry x="110" y="40" width="50" height="50" as="geometry" />
        </mxCell>
        <mxCell id="AHyAFD0pu5LO6jVeFDUx-12" value="&lt;font style=&quot;font-size: 10px;&quot;&gt;Уточнение с арендатором условий договора&lt;/font&gt;" style="rounded=1;whiteSpace=wrap;html=1;" parent="AHyAFD0pu5LO6jVeFDUx-1" vertex="1">
          <mxGeometry x="550" y="129" width="100" height="60" as="geometry" />
        </mxCell>
        <mxCell id="UreStvk_w5NdoWGTIFE5-32" value="" style="edgeStyle=orthogonalEdgeStyle;rounded=0;orthogonalLoop=1;jettySize=auto;html=1;" parent="AHyAFD0pu5LO6jVeFDUx-1" source="AHyAFD0pu5LO6jVeFDUx-18" target="UreStvk_w5NdoWGTIFE5-31" edge="1">
          <mxGeometry relative="1" as="geometry" />
        </mxCell>
        <mxCell id="AHyAFD0pu5LO6jVeFDUx-18" value="&lt;font style=&quot;font-size: 10px;&quot;&gt;Финальное согласование с арендатором условий аренды&lt;/font&gt;" style="rounded=1;whiteSpace=wrap;html=1;" parent="AHyAFD0pu5LO6jVeFDUx-1" vertex="1">
          <mxGeometry x="870" y="129" width="90" height="60" as="geometry" />
        </mxCell>
        <mxCell id="UreStvk_w5NdoWGTIFE5-37" value="" style="edgeStyle=orthogonalEdgeStyle;rounded=0;orthogonalLoop=1;jettySize=auto;html=1;" parent="AHyAFD0pu5LO6jVeFDUx-1" source="AHyAFD0pu5LO6jVeFDUx-20" target="UreStvk_w5NdoWGTIFE5-36" edge="1">
          <mxGeometry relative="1" as="geometry" />
        </mxCell>
        <mxCell id="AHyAFD0pu5LO6jVeFDUx-20" value="&lt;font style=&quot;font-size: 10px;&quot;&gt;Подписание договора аренды&lt;/font&gt;" style="rounded=1;whiteSpace=wrap;html=1;" parent="AHyAFD0pu5LO6jVeFDUx-1" vertex="1">
          <mxGeometry x="1150" y="129" width="100" height="60" as="geometry" />
        </mxCell>
        <mxCell id="UreStvk_w5NdoWGTIFE5-43" value="" style="edgeStyle=orthogonalEdgeStyle;rounded=0;orthogonalLoop=1;jettySize=auto;html=1;" parent="AHyAFD0pu5LO6jVeFDUx-1" source="AHyAFD0pu5LO6jVeFDUx-25" target="UreStvk_w5NdoWGTIFE5-42" edge="1">
          <mxGeometry relative="1" as="geometry" />
        </mxCell>
        <mxCell id="AHyAFD0pu5LO6jVeFDUx-25" value="&lt;font style=&quot;font-size: 10px;&quot;&gt;Процесс передачи объекта арендатору&lt;/font&gt;" style="rounded=1;whiteSpace=wrap;html=1;" parent="AHyAFD0pu5LO6jVeFDUx-1" vertex="1">
          <mxGeometry x="1400" y="130" width="110" height="60" as="geometry" />
        </mxCell>
        <mxCell id="UreStvk_w5NdoWGTIFE5-8" value="&lt;font style=&quot;font-size: 10px;&quot;&gt;Формирование пакета документов и передача юристам&lt;/font&gt;" style="rounded=1;whiteSpace=wrap;html=1;" parent="AHyAFD0pu5LO6jVeFDUx-1" vertex="1">
          <mxGeometry x="410" y="130" width="100" height="60" as="geometry" />
        </mxCell>
        <mxCell id="UreStvk_w5NdoWGTIFE5-47" style="edgeStyle=orthogonalEdgeStyle;rounded=0;orthogonalLoop=1;jettySize=auto;html=1;entryX=0;entryY=0.5;entryDx=0;entryDy=0;" parent="AHyAFD0pu5LO6jVeFDUx-1" source="UreStvk_w5NdoWGTIFE5-21" target="AHyAFD0pu5LO6jVeFDUx-20" edge="1">
          <mxGeometry relative="1" as="geometry">
            <mxPoint x="1130" y="159" as="targetPoint" />
            <Array as="points">
              <mxPoint x="770" y="90" />
              <mxPoint x="1130" y="90" />
              <mxPoint x="1130" y="159" />
            </Array>
          </mxGeometry>
        </mxCell>
        <mxCell id="UreStvk_w5NdoWGTIFE5-21" value="" style="points=[[0.25,0.25,0],[0.5,0,0],[0.75,0.25,0],[1,0.5,0],[0.75,0.75,0],[0.5,1,0],[0.25,0.75,0],[0,0.5,0]];shape=mxgraph.bpmn.gateway2;html=1;verticalLabelPosition=bottom;labelBackgroundColor=#ffffff;verticalAlign=top;align=center;perimeter=rhombusPerimeter;outlineConnect=0;outline=none;symbol=none;gwType=exclusive;" parent="AHyAFD0pu5LO6jVeFDUx-1" vertex="1">
          <mxGeometry x="730" y="119" width="80" height="80" as="geometry" />
        </mxCell>
        <mxCell id="UreStvk_w5NdoWGTIFE5-22" style="edgeStyle=orthogonalEdgeStyle;rounded=0;orthogonalLoop=1;jettySize=auto;html=1;entryX=0;entryY=0.5;entryDx=0;entryDy=0;entryPerimeter=0;" parent="AHyAFD0pu5LO6jVeFDUx-1" source="AHyAFD0pu5LO6jVeFDUx-12" target="UreStvk_w5NdoWGTIFE5-21" edge="1">
          <mxGeometry relative="1" as="geometry" />
        </mxCell>
        <mxCell id="UreStvk_w5NdoWGTIFE5-33" value="" style="edgeStyle=orthogonalEdgeStyle;rounded=0;orthogonalLoop=1;jettySize=auto;html=1;" parent="AHyAFD0pu5LO6jVeFDUx-1" source="UreStvk_w5NdoWGTIFE5-31" target="AHyAFD0pu5LO6jVeFDUx-20" edge="1">
          <mxGeometry relative="1" as="geometry" />
        </mxCell>
        <mxCell id="UreStvk_w5NdoWGTIFE5-35" value="" style="edgeStyle=orthogonalEdgeStyle;rounded=0;orthogonalLoop=1;jettySize=auto;html=1;" parent="AHyAFD0pu5LO6jVeFDUx-1" source="UreStvk_w5NdoWGTIFE5-31" target="UreStvk_w5NdoWGTIFE5-34" edge="1">
          <mxGeometry relative="1" as="geometry">
            <Array as="points">
              <mxPoint x="1065" y="210" />
              <mxPoint x="1065" y="210" />
            </Array>
          </mxGeometry>
        </mxCell>
        <mxCell id="UreStvk_w5NdoWGTIFE5-31" value="" style="points=[[0.25,0.25,0],[0.5,0,0],[0.75,0.25,0],[1,0.5,0],[0.75,0.75,0],[0.5,1,0],[0.25,0.75,0],[0,0.5,0]];shape=mxgraph.bpmn.gateway2;html=1;verticalLabelPosition=bottom;labelBackgroundColor=#ffffff;verticalAlign=top;align=center;perimeter=rhombusPerimeter;outlineConnect=0;outline=none;symbol=none;gwType=exclusive;" parent="AHyAFD0pu5LO6jVeFDUx-1" vertex="1">
          <mxGeometry x="1025" y="119" width="80" height="80" as="geometry" />
        </mxCell>
        <mxCell id="UreStvk_w5NdoWGTIFE5-34" value="" style="points=[[0.145,0.145,0],[0.5,0,0],[0.855,0.145,0],[1,0.5,0],[0.855,0.855,0],[0.5,1,0],[0.145,0.855,0],[0,0.5,0]];shape=mxgraph.bpmn.event;html=1;verticalLabelPosition=bottom;labelBackgroundColor=#ffffff;verticalAlign=top;align=center;perimeter=ellipsePerimeter;outlineConnect=0;aspect=fixed;outline=end;symbol=cancel;strokeColor=#FF0000;strokeWidth=3;" parent="AHyAFD0pu5LO6jVeFDUx-1" vertex="1">
          <mxGeometry x="1025" y="224" width="80" height="80" as="geometry" />
        </mxCell>
        <mxCell id="UreStvk_w5NdoWGTIFE5-40" value="" style="edgeStyle=orthogonalEdgeStyle;rounded=0;orthogonalLoop=1;jettySize=auto;html=1;" parent="AHyAFD0pu5LO6jVeFDUx-1" source="UreStvk_w5NdoWGTIFE5-36" target="AHyAFD0pu5LO6jVeFDUx-25" edge="1">
          <mxGeometry relative="1" as="geometry" />
        </mxCell>
        <mxCell id="UreStvk_w5NdoWGTIFE5-36" value="" style="points=[[0.25,0.25,0],[0.5,0,0],[0.75,0.25,0],[1,0.5,0],[0.75,0.75,0],[0.5,1,0],[0.25,0.75,0],[0,0.5,0]];shape=mxgraph.bpmn.gateway2;html=1;verticalLabelPosition=bottom;labelBackgroundColor=#ffffff;verticalAlign=top;align=center;perimeter=rhombusPerimeter;outlineConnect=0;outline=none;symbol=none;gwType=parallel;" parent="AHyAFD0pu5LO6jVeFDUx-1" vertex="1">
          <mxGeometry x="1279" y="120" width="80" height="80" as="geometry" />
        </mxCell>
        <mxCell id="UreStvk_w5NdoWGTIFE5-41" value="" style="points=[[0.145,0.145,0],[0.5,0,0],[0.855,0.145,0],[1,0.5,0],[0.855,0.855,0],[0.5,1,0],[0.145,0.855,0],[0,0.5,0]];shape=mxgraph.bpmn.event;html=1;verticalLabelPosition=bottom;labelBackgroundColor=#ffffff;verticalAlign=top;align=center;perimeter=ellipsePerimeter;outlineConnect=0;aspect=fixed;outline=end;symbol=terminate2;strokeColor=#00FF00;strokeWidth=3;" parent="AHyAFD0pu5LO6jVeFDUx-1" vertex="1">
          <mxGeometry x="1670" y="120" width="80" height="80" as="geometry" />
        </mxCell>
        <mxCell id="UreStvk_w5NdoWGTIFE5-45" value="" style="edgeStyle=orthogonalEdgeStyle;rounded=0;orthogonalLoop=1;jettySize=auto;html=1;" parent="AHyAFD0pu5LO6jVeFDUx-1" source="UreStvk_w5NdoWGTIFE5-42" target="UreStvk_w5NdoWGTIFE5-41" edge="1">
          <mxGeometry relative="1" as="geometry" />
        </mxCell>
        <mxCell id="UreStvk_w5NdoWGTIFE5-42" value="" style="points=[[0.25,0.25,0],[0.5,0,0],[0.75,0.25,0],[1,0.5,0],[0.75,0.75,0],[0.5,1,0],[0.25,0.75,0],[0,0.5,0]];shape=mxgraph.bpmn.gateway2;html=1;verticalLabelPosition=bottom;labelBackgroundColor=#ffffff;verticalAlign=top;align=center;perimeter=rhombusPerimeter;outlineConnect=0;outline=none;symbol=none;gwType=parallel;" parent="AHyAFD0pu5LO6jVeFDUx-1" vertex="1">
          <mxGeometry x="1550" y="120" width="80" height="80" as="geometry" />
        </mxCell>
        <mxCell id="UreStvk_w5NdoWGTIFE5-50" style="edgeStyle=orthogonalEdgeStyle;rounded=0;orthogonalLoop=1;jettySize=auto;html=1;entryX=0.5;entryY=0;entryDx=0;entryDy=0;dashed=1;exitX=1;exitY=0.5;exitDx=0;exitDy=0;" parent="AHyAFD0pu5LO6jVeFDUx-1" source="UreStvk_w5NdoWGTIFE5-1" target="AHyAFD0pu5LO6jVeFDUx-12" edge="1">
          <mxGeometry relative="1" as="geometry">
            <mxPoint x="170" y="70" as="sourcePoint" />
            <mxPoint x="470" y="140" as="targetPoint" />
          </mxGeometry>
        </mxCell>
        <mxCell id="UreStvk_w5NdoWGTIFE5-51" style="edgeStyle=orthogonalEdgeStyle;rounded=0;orthogonalLoop=1;jettySize=auto;html=1;entryX=0.5;entryY=0;entryDx=0;entryDy=0;dashed=1;exitX=1;exitY=0.5;exitDx=0;exitDy=0;" parent="AHyAFD0pu5LO6jVeFDUx-1" source="UreStvk_w5NdoWGTIFE5-1" target="AHyAFD0pu5LO6jVeFDUx-18" edge="1">
          <mxGeometry relative="1" as="geometry">
            <mxPoint x="180" y="80" as="sourcePoint" />
            <mxPoint x="480" y="150" as="targetPoint" />
          </mxGeometry>
        </mxCell>
        <mxCell id="UreStvk_w5NdoWGTIFE5-53" style="edgeStyle=orthogonalEdgeStyle;rounded=0;orthogonalLoop=1;jettySize=auto;html=1;entryX=0.5;entryY=0;entryDx=0;entryDy=0;dashed=1;exitX=1;exitY=0.5;exitDx=0;exitDy=0;" parent="AHyAFD0pu5LO6jVeFDUx-1" source="UreStvk_w5NdoWGTIFE5-1" target="AHyAFD0pu5LO6jVeFDUx-25" edge="1">
          <mxGeometry relative="1" as="geometry">
            <mxPoint x="200" y="100" as="sourcePoint" />
            <mxPoint x="500" y="170" as="targetPoint" />
          </mxGeometry>
        </mxCell>
        <mxCell id="UreStvk_w5NdoWGTIFE5-52" style="edgeStyle=orthogonalEdgeStyle;rounded=0;orthogonalLoop=1;jettySize=auto;html=1;entryX=0.5;entryY=0;entryDx=0;entryDy=0;dashed=1;exitX=1;exitY=0.5;exitDx=0;exitDy=0;" parent="AHyAFD0pu5LO6jVeFDUx-1" source="UreStvk_w5NdoWGTIFE5-1" target="AHyAFD0pu5LO6jVeFDUx-20" edge="1">
          <mxGeometry relative="1" as="geometry">
            <mxPoint x="160" y="60" as="sourcePoint" />
            <mxPoint x="490" y="160" as="targetPoint" />
          </mxGeometry>
        </mxCell>
        <mxCell id="AHyAFD0pu5LO6jVeFDUx-2" value="Юрист" style="swimlane;html=1;startSize=20;horizontal=0;" parent="AHyAFD0pu5LO6jVeFDUx-0" vertex="1">
          <mxGeometry y="370" width="1800" height="240" as="geometry" />
        </mxCell>
        <mxCell id="UreStvk_w5NdoWGTIFE5-15" value="" style="edgeStyle=orthogonalEdgeStyle;rounded=0;orthogonalLoop=1;jettySize=auto;html=1;" parent="AHyAFD0pu5LO6jVeFDUx-2" source="AHyAFD0pu5LO6jVeFDUx-8" target="UreStvk_w5NdoWGTIFE5-14" edge="1">
          <mxGeometry relative="1" as="geometry" />
        </mxCell>
        <mxCell id="AHyAFD0pu5LO6jVeFDUx-8" value="&lt;font style=&quot;font-size: 10px;&quot;&gt;Подготовка проекта договора аренды&lt;/font&gt;" style="whiteSpace=wrap;html=1;rounded=1;" parent="AHyAFD0pu5LO6jVeFDUx-2" vertex="1">
          <mxGeometry x="410" y="70" width="100" height="60" as="geometry" />
        </mxCell>
        <mxCell id="UreStvk_w5NdoWGTIFE5-24" value="" style="edgeStyle=orthogonalEdgeStyle;rounded=0;orthogonalLoop=1;jettySize=auto;html=1;" parent="AHyAFD0pu5LO6jVeFDUx-2" source="AHyAFD0pu5LO6jVeFDUx-10" target="UreStvk_w5NdoWGTIFE5-23" edge="1">
          <mxGeometry relative="1" as="geometry" />
        </mxCell>
        <mxCell id="AHyAFD0pu5LO6jVeFDUx-10" value="&lt;font style=&quot;font-size: 10px;&quot;&gt;Проведение юридической проверки предлагаемых условий договора&lt;/font&gt;" style="whiteSpace=wrap;html=1;rounded=1;" parent="AHyAFD0pu5LO6jVeFDUx-2" vertex="1">
          <mxGeometry x="710" y="70" width="120" height="60" as="geometry" />
        </mxCell>
        <mxCell id="UreStvk_w5NdoWGTIFE5-14" value="&lt;font style=&quot;font-size: 10px;&quot;&gt;Передача проекта договора аренды менеджеру&lt;/font&gt;" style="whiteSpace=wrap;html=1;rounded=1;" parent="AHyAFD0pu5LO6jVeFDUx-2" vertex="1">
          <mxGeometry x="550" y="70" width="100" height="60" as="geometry" />
        </mxCell>
        <mxCell id="UreStvk_w5NdoWGTIFE5-23" value="&lt;span style=&quot;font-size: 10px;&quot;&gt;Внесение изменений в проект договора&lt;/span&gt;" style="whiteSpace=wrap;html=1;rounded=1;" parent="AHyAFD0pu5LO6jVeFDUx-2" vertex="1">
          <mxGeometry x="870" y="70" width="90" height="60" as="geometry" />
        </mxCell>
        <mxCell id="UreStvk_w5NdoWGTIFE5-38" value="&lt;span style=&quot;font-size: 10px;&quot;&gt;Регистрация договора аренды&lt;/span&gt;" style="whiteSpace=wrap;html=1;rounded=1;" parent="AHyAFD0pu5LO6jVeFDUx-2" vertex="1">
          <mxGeometry x="1274" y="70" width="90" height="60" as="geometry" />
        </mxCell>
        <mxCell id="UreStvk_w5NdoWGTIFE5-13" value="&lt;font style=&quot;font-size: 8px;&quot;&gt;Проект договора №1&lt;/font&gt;" style="shape=mxgraph.bpmn.data;labelPosition=center;verticalLabelPosition=bottom;align=center;verticalAlign=top;size=15;html=1;" parent="AHyAFD0pu5LO6jVeFDUx-2" vertex="1">
          <mxGeometry x="585" y="150" width="30" height="40" as="geometry" />
        </mxCell>
        <mxCell id="UreStvk_w5NdoWGTIFE5-25" value="&lt;font style=&quot;font-size: 8px;&quot;&gt;Проект договора №2&lt;/font&gt;" style="shape=mxgraph.bpmn.data;labelPosition=center;verticalLabelPosition=bottom;align=center;verticalAlign=top;size=15;html=1;" parent="AHyAFD0pu5LO6jVeFDUx-2" vertex="1">
          <mxGeometry x="900" y="150" width="30" height="40" as="geometry" />
        </mxCell>
        <mxCell id="UreStvk_w5NdoWGTIFE5-46" value="&lt;font style=&quot;font-size: 8px;&quot;&gt;Договор аренды&lt;/font&gt;" style="shape=mxgraph.bpmn.data;labelPosition=center;verticalLabelPosition=bottom;align=center;verticalAlign=top;size=15;html=1;" parent="AHyAFD0pu5LO6jVeFDUx-2" vertex="1">
          <mxGeometry x="1185" y="150" width="30" height="40" as="geometry" />
        </mxCell>
        <mxCell id="UreStvk_w5NdoWGTIFE5-19" style="edgeStyle=orthogonalEdgeStyle;rounded=0;orthogonalLoop=1;jettySize=auto;html=1;entryX=1;entryY=0.25;entryDx=0;entryDy=0;dashed=1;exitX=1.167;exitY=0.5;exitDx=0;exitDy=0;exitPerimeter=0;" parent="AHyAFD0pu5LO6jVeFDUx-2" source="UreStvk_w5NdoWGTIFE5-13" target="UreStvk_w5NdoWGTIFE5-14" edge="1">
          <mxGeometry relative="1" as="geometry">
            <Array as="points">
              <mxPoint x="680" y="170" />
              <mxPoint x="680" y="85" />
            </Array>
          </mxGeometry>
        </mxCell>
        <mxCell id="UreStvk_w5NdoWGTIFE5-29" style="edgeStyle=orthogonalEdgeStyle;rounded=0;orthogonalLoop=1;jettySize=auto;html=1;entryX=1;entryY=0.5;entryDx=0;entryDy=0;exitX=0;exitY=0;exitDx=30;exitDy=15;exitPerimeter=0;dashed=1;" parent="AHyAFD0pu5LO6jVeFDUx-2" source="UreStvk_w5NdoWGTIFE5-25" target="UreStvk_w5NdoWGTIFE5-23" edge="1">
          <mxGeometry relative="1" as="geometry">
            <Array as="points">
              <mxPoint x="990" y="165" />
              <mxPoint x="990" y="100" />
            </Array>
          </mxGeometry>
        </mxCell>
        <mxCell id="UreStvk_w5NdoWGTIFE5-48" style="edgeStyle=orthogonalEdgeStyle;rounded=0;orthogonalLoop=1;jettySize=auto;html=1;entryX=0;entryY=0.5;entryDx=0;entryDy=0;dashed=1;exitX=0;exitY=0;exitDx=15;exitDy=0;exitPerimeter=0;" parent="AHyAFD0pu5LO6jVeFDUx-2" source="UreStvk_w5NdoWGTIFE5-46" target="UreStvk_w5NdoWGTIFE5-38" edge="1">
          <mxGeometry relative="1" as="geometry" />
        </mxCell>
        <mxCell id="UreStvk_w5NdoWGTIFE5-20" style="edgeStyle=orthogonalEdgeStyle;rounded=0;orthogonalLoop=1;jettySize=auto;html=1;entryX=0.979;entryY=0.869;entryDx=0;entryDy=0;dashed=1;entryPerimeter=0;" parent="AHyAFD0pu5LO6jVeFDUx-0" source="UreStvk_w5NdoWGTIFE5-13" target="AHyAFD0pu5LO6jVeFDUx-12" edge="1">
          <mxGeometry relative="1" as="geometry">
            <Array as="points">
              <mxPoint x="680" y="540" />
              <mxPoint x="680" y="201" />
            </Array>
          </mxGeometry>
        </mxCell>
        <mxCell id="UreStvk_w5NdoWGTIFE5-30" style="edgeStyle=orthogonalEdgeStyle;rounded=0;orthogonalLoop=1;jettySize=auto;html=1;entryX=1.003;entryY=0.892;entryDx=0;entryDy=0;entryPerimeter=0;dashed=1;exitX=0;exitY=0;exitDx=30;exitDy=15;exitPerimeter=0;" parent="AHyAFD0pu5LO6jVeFDUx-0" source="UreStvk_w5NdoWGTIFE5-25" target="AHyAFD0pu5LO6jVeFDUx-18" edge="1">
          <mxGeometry relative="1" as="geometry">
            <mxPoint x="930" y="430" as="sourcePoint" />
            <Array as="points">
              <mxPoint x="990" y="535" />
              <mxPoint x="990" y="203" />
              <mxPoint x="960" y="203" />
            </Array>
          </mxGeometry>
        </mxCell>
        <mxCell id="UreStvk_w5NdoWGTIFE5-49" style="edgeStyle=orthogonalEdgeStyle;rounded=0;orthogonalLoop=1;jettySize=auto;html=1;entryX=0.5;entryY=1;entryDx=0;entryDy=0;dashed=1;" parent="AHyAFD0pu5LO6jVeFDUx-0" source="UreStvk_w5NdoWGTIFE5-46" target="AHyAFD0pu5LO6jVeFDUx-20" edge="1">
          <mxGeometry relative="1" as="geometry" />
        </mxCell>
        <mxCell id="UreStvk_w5NdoWGTIFE5-16" style="edgeStyle=orthogonalEdgeStyle;rounded=0;orthogonalLoop=1;jettySize=auto;html=1;entryX=0.5;entryY=0;entryDx=0;entryDy=0;" parent="AHyAFD0pu5LO6jVeFDUx-0" source="UreStvk_w5NdoWGTIFE5-8" target="AHyAFD0pu5LO6jVeFDUx-8" edge="1">
          <mxGeometry relative="1" as="geometry" />
        </mxCell>
        <mxCell id="UreStvk_w5NdoWGTIFE5-26" style="edgeStyle=orthogonalEdgeStyle;rounded=0;orthogonalLoop=1;jettySize=auto;html=1;entryX=0.5;entryY=0;entryDx=0;entryDy=0;" parent="AHyAFD0pu5LO6jVeFDUx-0" source="UreStvk_w5NdoWGTIFE5-21" target="AHyAFD0pu5LO6jVeFDUx-10" edge="1">
          <mxGeometry relative="1" as="geometry" />
        </mxCell>
        <mxCell id="UreStvk_w5NdoWGTIFE5-18" style="edgeStyle=orthogonalEdgeStyle;rounded=0;orthogonalLoop=1;jettySize=auto;html=1;entryX=0.5;entryY=1;entryDx=0;entryDy=0;" parent="AHyAFD0pu5LO6jVeFDUx-0" source="UreStvk_w5NdoWGTIFE5-14" target="AHyAFD0pu5LO6jVeFDUx-12" edge="1">
          <mxGeometry relative="1" as="geometry" />
        </mxCell>
        <mxCell id="UreStvk_w5NdoWGTIFE5-28" style="edgeStyle=orthogonalEdgeStyle;rounded=0;orthogonalLoop=1;jettySize=auto;html=1;entryX=0.5;entryY=1;entryDx=0;entryDy=0;" parent="AHyAFD0pu5LO6jVeFDUx-0" source="UreStvk_w5NdoWGTIFE5-23" target="AHyAFD0pu5LO6jVeFDUx-18" edge="1">
          <mxGeometry relative="1" as="geometry" />
        </mxCell>
        <mxCell id="UreStvk_w5NdoWGTIFE5-39" style="edgeStyle=orthogonalEdgeStyle;rounded=0;orthogonalLoop=1;jettySize=auto;html=1;entryX=0.5;entryY=0;entryDx=0;entryDy=0;" parent="AHyAFD0pu5LO6jVeFDUx-0" source="UreStvk_w5NdoWGTIFE5-36" target="UreStvk_w5NdoWGTIFE5-38" edge="1">
          <mxGeometry relative="1" as="geometry" />
        </mxCell>
        <mxCell id="UreStvk_w5NdoWGTIFE5-44" style="edgeStyle=orthogonalEdgeStyle;rounded=0;orthogonalLoop=1;jettySize=auto;html=1;" parent="AHyAFD0pu5LO6jVeFDUx-0" source="UreStvk_w5NdoWGTIFE5-38" target="UreStvk_w5NdoWGTIFE5-42" edge="1">
          <mxGeometry relative="1" as="geometry" />
        </mxCell>
      </root>
    </mxGraphModel>
  </diagram>
</mxfile>
